<svg width="192" height="214" viewBox="0 0 192 214" fill="none" xmlns="http://www.w3.org/2000/svg">
<circle opacity="0.3" cx="162" cy="30" r="30" fill="#FF7328"/>
<circle opacity="0.3" cx="162" cy="30" r="20" fill="#FF7328"/>
<path d="M151.333 30C151.333 35.891 156.109 40.6667 162 40.6667C167.891 40.6667 172.667 35.891 172.667 30C172.667 24.109 167.891 19.3333 162 19.3333C156.109 19.3333 151.333 24.109 151.333 30ZM4 211C4 209.895 3.10457 209 2 209C0.89543 209 0 209.895 0 211H4ZM0 201C0 202.105 0.89543 203 2 203C3.10457 203 4 202.105 4 201H0ZM4 195C4 193.895 3.10457 193 2 193C0.89543 193 0 193.895 0 195H4ZM0 185C0 186.105 0.89543 187 2 187C3.10457 187 4 186.105 4 185H0ZM4 179C4 177.895 3.10457 177 2 177C0.89543 177 0 177.895 0 179H4ZM0 169C0 170.105 0.89543 171 2 171C3.10457 171 4 170.105 4 169H0ZM4 163C4 161.895 3.10457 161 2 161C0.89543 161 0 161.895 0 163H4ZM0 153C0 154.105 0.89543 155 2 155C3.10457 155 4 154.105 4 153H0ZM4 147C4 145.895 3.10457 145 2 145C0.89543 145 0 145.895 0 147H4ZM0 137C0 138.105 0.89543 139 2 139C3.10457 139 4 138.105 4 137H0ZM4 131C4 129.895 3.10457 129 2 129C0.89543 129 0 129.895 0 131H4ZM0 121C0 122.105 0.89543 123 2 123C3.10457 123 4 122.105 4 121H0ZM4 115C4 113.895 3.10457 113 2 113C0.89543 113 0 113.895 0 115H4ZM0 105C0 106.105 0.89543 107 2 107C3.10457 107 4 106.105 4 105H0ZM4 99C4 97.8954 3.10457 97 2 97C0.89543 97 0 97.8954 0 99H4ZM0 89C0 90.1046 0.89543 91 2 91C3.10457 91 4 90.1046 4 89H0ZM4 83C4 81.8954 3.10457 81 2 81C0.89543 81 0 81.8954 0 83H4ZM0 73C0 74.1046 0.89543 75 2 75C3.10457 75 4 74.1046 4 73H0ZM4 67C4 65.8954 3.10457 65 2 65C0.89543 65 0 65.8954 0 67H4ZM0 57C0 58.1046 0.89543 59 2 59C3.10457 59 4 58.1046 4 57H0ZM4 51C4 49.8954 3.10457 49 2 49C0.89543 49 0 49.8954 0 51H4ZM0 41C0 42.1046 0.89543 43 2 43C3.10457 43 4 42.1046 4 41H0ZM4.25659 36.2568C4.57686 35.1997 3.97953 34.0831 2.92242 33.7629C1.8653 33.4426 0.748702 34.0399 0.428426 35.097L4.25659 36.2568ZM7.09702 28.4284C6.03991 28.7487 5.44258 29.8653 5.76286 30.9224C6.08313 31.9795 7.19973 32.5769 8.25685 32.2566L7.09702 28.4284ZM12.85 32C13.9546 32 14.85 31.1046 14.85 30C14.85 28.8954 13.9546 28 12.85 28V32ZM22.35 28C21.2454 28 20.35 28.8954 20.35 30C20.35 31.1046 21.2454 32 22.35 32V28ZM28.05 32C29.1546 32 30.05 31.1046 30.05 30C30.05 28.8954 29.1546 28 28.05 28V32ZM37.55 28C36.4454 28 35.55 28.8954 35.55 30C35.55 31.1046 36.4454 32 37.55 32V28ZM43.25 32C44.3546 32 45.25 31.1046 45.25 30C45.25 28.8954 44.3546 28 43.25 28V32ZM52.75 28C51.6454 28 50.75 28.8954 50.75 30C50.75 31.1046 51.6454 32 52.75 32V28ZM58.45 32C59.5546 32 60.45 31.1046 60.45 30C60.45 28.8954 59.5546 28 58.45 28V32ZM67.95 28C66.8454 28 65.95 28.8954 65.95 30C65.95 31.1046 66.8454 32 67.95 32V28ZM73.65 32C74.7546 32 75.65 31.1046 75.65 30C75.65 28.8954 74.7546 28 73.65 28V32ZM83.15 28C82.0454 28 81.15 28.8954 81.15 30C81.15 31.1046 82.0454 32 83.15 32V28ZM88.85 32C89.9546 32 90.85 31.1046 90.85 30C90.85 28.8954 89.9546 28 88.85 28V32ZM98.35 28C97.2454 28 96.35 28.8954 96.35 30C96.35 31.1046 97.2454 32 98.35 32V28ZM104.05 32C105.155 32 106.05 31.1046 106.05 30C106.05 28.8954 105.155 28 104.05 28V32ZM113.55 28C112.445 28 111.55 28.8954 111.55 30C111.55 31.1046 112.445 32 113.55 32V28ZM119.25 32C120.355 32 121.25 31.1046 121.25 30C121.25 28.8954 120.355 28 119.25 28V32ZM128.75 28C127.645 28 126.75 28.8954 126.75 30C126.75 31.1046 127.645 32 128.75 32V28ZM134.45 32C135.555 32 136.45 31.1046 136.45 30C136.45 28.8954 135.555 28 134.45 28V32ZM143.95 28C142.845 28 141.95 28.8954 141.95 30C141.95 31.1046 142.845 32 143.95 32V28ZM149.65 32C150.755 32 151.65 31.1046 151.65 30C151.65 28.8954 150.755 28 149.65 28V32ZM159.15 28C158.045 28 157.15 28.8954 157.15 30C157.15 31.1046 158.045 32 159.15 32V28ZM4 214V211H0V214H4ZM4 201V195H0V201H4ZM4 185V179H0V185H4ZM4 169V163H0V169H4ZM4 153V147H0V153H4ZM4 137V131H0V137H4ZM4 121V115H0V121H4ZM4 105V99H0V105H4ZM4 89V83H0V89H4ZM4 73V67H0V73H4ZM4 57V51H0V57H4ZM4 41V38H0V41H4ZM4 38C4 37.3907 4.09019 36.8061 4.25659 36.2568L0.428426 35.097C0.149339 36.0182 0 36.9935 0 38H4ZM8.25685 32.2566C8.80607 32.0902 9.39069 32 10 32V28C8.99346 28 8.01819 28.1493 7.09702 28.4284L8.25685 32.2566ZM10 32H12.85V28H10V32ZM22.35 32H28.05V28H22.35V32ZM37.55 32H43.25V28H37.55V32ZM52.75 32H58.45V28H52.75V32ZM67.95 32H73.65V28H67.95V32ZM83.15 32H88.85V28H83.15V32ZM98.35 32H104.05V28H98.35V32ZM113.55 32H119.25V28H113.55V32ZM128.75 32H134.45V28H128.75V32ZM143.95 32H149.65V28H143.95V32ZM159.15 32H162V28H159.15V32Z" fill="#FF7328"/>
</svg>
