<svg width="192" height="215" viewBox="0 0 192 215" fill="none" xmlns="http://www.w3.org/2000/svg">
<circle opacity="0.3" cx="162" cy="30.5" r="30" fill="#FF7328"/>
<circle opacity="0.3" cx="162" cy="30.5" r="20" fill="#FF7328"/>
<path d="M151.333 30.5C151.333 36.391 156.109 41.1667 162 41.1667C167.891 41.1667 172.667 36.391 172.667 30.5C172.667 24.609 167.891 19.8333 162 19.8333C156.109 19.8333 151.333 24.609 151.333 30.5ZM4 214.5V211.567H0V214.5H4ZM4 205.7V199.833H0V205.7H4ZM4 193.967V188.1H0V193.967H4ZM4 182.233V176.367H0V182.233H4ZM4 170.5V164.633H0V170.5H4ZM4 158.767V152.9H0V158.767H4ZM4 147.033V141.167H0V147.033H4ZM4 135.3V129.433H0V135.3H4ZM4 123.567V117.7H0V123.567H4ZM4 111.833V105.967H0V111.833H4ZM4 100.1V94.2333H0V100.1H4ZM4 88.3666V82.5H0V88.3666H4ZM4 76.6333V70.7666H0V76.6333H4ZM4 64.9V59.0333H0V64.9H4ZM4 53.1666V47.3H0V53.1666H4ZM4 41.4333V38.5H0V41.4333H4ZM4 38.5C4 37.6828 4.16228 36.9085 4.4545 36.2038L0.759592 34.6716C0.269498 35.8534 0 37.1478 0 38.5H4ZM7.7038 32.9545C8.40848 32.6623 9.18277 32.5 10 32.5V28.5C8.64777 28.5 7.35344 28.7695 6.17159 29.2596L7.7038 32.9545ZM10 32.5H12.9231V28.5H10V32.5ZM18.7692 32.5H24.6154V28.5H18.7692V32.5ZM30.4615 32.5H36.3077V28.5H30.4615V32.5ZM42.1538 32.5H48V28.5H42.1538V32.5ZM53.8462 32.5H59.6923V28.5H53.8462V32.5ZM65.5385 32.5H71.3846V28.5H65.5385V32.5ZM77.2308 32.5H83.0769V28.5H77.2308V32.5ZM88.9231 32.5H94.7692V28.5H88.9231V32.5ZM100.615 32.5H106.462V28.5H100.615V32.5ZM112.308 32.5H118.154V28.5H112.308V32.5ZM124 32.5H129.846V28.5H124V32.5ZM135.692 32.5H141.538V28.5H135.692V32.5ZM147.385 32.5H153.231V28.5H147.385V32.5ZM159.077 32.5H162V28.5H159.077V32.5Z" fill="#FF7328"/>
</svg>
